<?xml version="1.0" standalone="no"?>
<!DOCTYPE svg PUBLIC "-//W3C//DTD SVG 20010904//EN"
 "http://www.w3.org/TR/2001/REC-SVG-20010904/DTD/svg10.dtd">
<svg version="1.0" xmlns="http://www.w3.org/2000/svg"
 width="220.000000pt" height="220.000000pt" viewBox="0 0 220.000000 220.000000"
 preserveAspectRatio="xMidYMid meet">
<metadata>
Created by potrace 1.11, written by Peter Selinger 2001-2013
</metadata>
<g transform="translate(0.000000,220.000000) scale(0.100000,-0.100000)"
fill="#000000" stroke="none">
<path d="M896 1335 c-80 -28 -112 -92 -93 -187 8 -39 64 -97 95 -99 9 -1 29
-2 44 -3 32 -3 108 28 108 44 0 14 -6 13 -43 -7 -39 -20 -86 -19 -127 2 -79
41 -80 179 0 220 36 19 97 19 130 0 30 -17 40 -18 40 -5 0 29 -103 52 -154 35z"/>
<path d="M1223 1331 c-20 -13 -34 -31 -38 -51 -11 -50 18 -82 91 -100 72 -18
84 -26 84 -50 0 -41 -77 -53 -120 -20 -28 22 -39 24 -59 11 -20 -13 4 -50 44
-67 94 -39 196 5 195 83 -1 48 -33 75 -105 87 -64 11 -75 16 -75 35 0 40 64
56 108 26 25 -18 65 -5 56 18 -16 43 -128 60 -181 28z"/>
<path d="M20 1194 c0 -80 4 -143 8 -140 4 2 7 25 6 50 l-2 46 74 0 c65 0 76 3
99 25 38 39 36 104 -6 139 -27 23 -39 26 -105 26 l-74 0 0 -146z m171 97 c25
-30 24 -72 -1 -99 -17 -18 -32 -22 -89 -22 l-67 0 -1 76 0 76 70 -4 c58 -3 73
-8 88 -27z"/>
<path d="M282 1195 c0 -112 2 -145 12 -145 9 0 13 15 13 43 1 70 0 69 41 66
31 -2 46 -12 87 -57 28 -30 56 -53 63 -51 7 2 -5 24 -32 54 l-45 49 29 12 c65
28 77 111 23 154 -21 16 -40 20 -108 20 l-82 0 -1 -145z m184 100 c22 -30 18
-81 -8 -99 -28 -20 -148 -22 -149 -3 -1 17 -1 110 0 121 1 4 33 6 72 4 55 -3
74 -8 85 -23z"/>
<path d="M554 1195 c-1 -127 1 -145 15 -146 26 -1 113 -1 154 0 20 1 37 6 37
11 0 6 -36 10 -89 10 -99 0 -101 1 -91 75 l5 39 70 2 c89 1 95 2 95 12 0 5
-30 8 -67 7 -108 -3 -110 -1 -104 99 1 10 16 14 59 14 111 1 122 2 122 12 0 6
-41 10 -103 10 l-102 0 -1 -145z"/>
<path d="M1105 1195 c0 -111 3 -145 12 -145 10 0 13 34 13 145 0 109 -3 145
-12 145 -10 0 -13 -36 -13 -145z"/>
<path d="M1460 1243 c0 -116 16 -159 70 -185 66 -34 127 -18 167 41 20 30 23
46 23 137 l0 104 -29 0 -29 0 1 -102 c0 -98 -1 -102 -27 -125 -33 -28 -56 -29
-90 -2 -25 20 -26 24 -26 125 l0 104 -30 0 -30 0 0 -97z"/>
<path d="M1770 1195 l0 -145 24 0 c15 0 26 -7 29 -19 7 -27 63 -41 187 -46
l105 -4 -87 9 c-89 8 -158 26 -158 39 0 13 24 31 42 31 10 0 18 5 18 11 0 12
-46 8 -82 -6 -15 -6 -18 -1 -18 33 0 32 4 41 22 45 17 5 32 -5 67 -43 45 -47
56 -54 94 -51 16 1 12 10 -22 50 l-41 49 25 16 c36 24 49 62 36 106 -16 54
-52 70 -155 70 l-86 0 0 -145z m174 79 c37 -36 11 -74 -50 -75 -64 -2 -64 -2
-64 46 l0 45 49 0 c32 0 55 -6 65 -16z"/>
<path d="M2013 1085 c4 -5 35 -12 68 -16 78 -9 94 -23 48 -43 -40 -18 -29 -20
24 -5 41 11 48 32 16 49 -24 13 -167 26 -156 15z"/>
<path d="M1696 1055 c-21 -7 -45 -20 -53 -27 -37 -38 98 -79 252 -76 l90 1
-90 7 c-104 8 -149 17 -188 37 -24 12 -26 17 -16 29 7 9 26 21 43 29 41 18 12
18 -38 0z"/>
</g>
</svg>
